<svg width="32" height="32" viewBox="0 0 32 32" fill="none" xmlns="http://www.w3.org/2000/svg">
<rect width="32" height="32" rx="16" fill="#D95762"/>
<path fill-rule="evenodd" clip-rule="evenodd" d="M15.5 8H16.5C16.8444 8 17.0472 8.25 17.25 8.5C17.4528 8.75 17.6556 9 18 9H21C21.5523 9 22 9.44772 22 10C22 10.5523 21.5523 11 21 11H20.9202C20.9201 11.0254 20.9192 11.051 20.9172 11.0767L20.071 22.0767C20.0309 22.5977 19.5965 23 19.074 23H12.926C12.4035 23 11.9691 22.5977 11.929 22.0767L11.0828 11.0767C11.0808 11.051 11.0799 11.0254 11.0798 11H11C10.4477 11 10 10.5523 10 10C10 9.44772 10.4477 9 11 9H14C14.3444 9 14.5472 8.75 14.75 8.5C14.9528 8.25 15.1556 8 15.5 8ZM13.0613 12.5518C13.0286 12.2574 13.259 12 13.5552 12C13.8084 12 14.0212 12.1904 14.0491 12.4421L14.9387 20.4482C14.9714 20.7426 14.741 21 14.4448 21C14.1916 21 13.9788 20.8096 13.9509 20.5579L13.0613 12.5518ZM18.4448 12C18.741 12 18.9714 12.2574 18.9387 12.5518L18.0491 20.5579C18.0212 20.8096 17.8084 21 17.5552 21C17.259 21 17.0286 20.7426 17.0613 20.4482L17.9509 12.4421C17.9788 12.1904 18.1916 12 18.4448 12Z" fill="white"/>
</svg>
